Run_50001
nRows=4
nColumns=164

# SIMM Motion File Header:
name Run_50001
datacolumns 164
datarows 4
otherdata 1
range 2.75000000 2.77500000
endheader
time	pelvis_tilt	pelvis_list	pelvis_rotation	pelvis_tx	pelvis_ty	pelvis_tz	hip_flexion_r	hip_adduction_r	hip_rotation_r	knee_angle_r	ankle_angle_r	hip_flexion_l	hip_adduction_l	hip_rotation_l	knee_angle_l	ankle_angle_l	lumbar_extension	lumbar_bending	lumbar_rotation	arm_flex_r	arm_add_r	arm_rot_r	elbow_flex_r	pro_sup_r	arm_flex_l	arm_add_l	arm_rot_l	elbow_flex_l	pro_sup_l	subtalar_angle_r	mtp_angle_r	subtalar_angle_l	mtp_angle_l	wrist_flex_r	wrist_dev_r	wrist_flex_l	wrist_dev_l	LASI_tx	LASI_ty	LASI_tz	RASI_tx	RASI_ty	RASI_tz	LPSI_tx	LPSI_ty	LPSI_tz	RPSI_tx	RPSI_ty	RPSI_tz	RTH1_tx	RTH1_ty	RTH1_tz	RTH2_tx	RTH2_ty	RTH2_tz	RTH3_tx	RTH3_ty	RTH3_tz	LTH1_tx	LTH1_ty	LTH1_tz	LTH2_tx	LTH2_ty	LTH2_tz	LTH3_tx	LTH3_ty	LTH3_tz	RTB1_tx	RTB1_ty	RTB1_tz	RTB2_tx	RTB2_ty	RTB2_tz	RTB3_tx	RTB3_ty	RTB3_tz	LTB1_tx	LTB1_ty	LTB1_tz	LTB2_tx	LTB2_ty	LTB2_tz	LTB3_tx	LTB3_ty	LTB3_tz	RCAL_tx	RCAL_ty	RCAL_tz	RTOE_tx	RTOE_ty	RTOE_tz	RMT5_tx	RMT5_ty	RMT5_tz	LCAL_tx	LCAL_ty	LCAL_tz	LTOE_tx	LTOE_ty	LTOE_tz	LMT5_tx	LMT5_ty	LMT5_tz	LACR_tx	LACR_ty	LACR_tz	RACR_tx	RACR_ty	RACR_tz	CLAV_tx	CLAV_ty	CLAV_tz	C7_tx	C7_ty	C7_tz	RUA1_tx	RUA1_ty	RUA1_tz	RUA2_tx	RUA2_ty	RUA2_tz	RUA3_tx	RUA3_ty	RUA3_tz	RLEL_tx	RLEL_ty	RLEL_tz	RMEL_tx	RMEL_ty	RMEL_tz	LUA1_tx	LUA1_ty	LUA1_tz	LUA2_tx	LUA2_ty	LUA2_tz	LUA3_tx	LUA3_ty	LUA3_tz	LLEL_tx	LLEL_ty	LLEL_tz	LMEL_tx	LMEL_ty	LMEL_tz	RFAsuperior_tx	RFAsuperior_ty	RFAsuperior_tz	RFAradius_tx	RFAradius_ty	RFAradius_tz	RFAulna_tx	RFAulna_ty	RFAulna_tz	LFAsuperior_tx	LFAsuperior_ty	LFAsuperior_tz	LFAradius_tx	LFAradius_ty	LFAradius_tz	LFAulna_tx	LFAulna_ty	LFAulna_tz
      2.75000000	     -8.62207515	     -4.99142765	     -3.98540900	      1.22143586	      1.00977332	     -0.29457105	     35.34799055	      9.75934474	     -1.98893294	    -12.25968597	    -16.76105907	     -8.57511551	      2.84897123	     -3.17281700	    -72.87105208	    -35.29542379	     -1.91344914	      8.54149951	    -11.83548726	    -53.58057347	     -9.63541834	    -20.63819052	     80.85090168	     68.10278098	    -23.47139469	    -20.30279632	      3.79036514	    138.26896119	     86.84760706	      0.00000000	      0.00000000	      0.00000000	      0.00000000	      0.00000000	      0.00000000	      0.00000000	      0.00000000	      1.23481714	      1.00967480	     -0.40781505	      1.21606280	      1.03079867	     -0.17879460	      1.06948472	      1.07129553	     -0.36260719	      1.05713478	      1.07157371	     -0.26361844	      1.18701676	      0.87849889	     -0.11205120	      1.30680425	      0.75811799	     -0.14246111	      1.28523750	      0.65542952	     -0.15776929	      1.12510887	      0.84581055	     -0.46062119	      1.15304234	      0.72889050	     -0.41976389	      1.03841621	      0.63926594	     -0.40954990	      1.42182593	      0.46699174	     -0.21773676	      1.38178921	      0.39323406	     -0.16593990	      1.46177322	      0.29189576	     -0.23152862	      0.88775443	      0.47537623	     -0.34114171	      0.78824571	      0.51150926	     -0.39687634	      0.68813334	      0.48562202	     -0.33617555	      1.38882852	      0.13284150	     -0.28120753	      1.59871836	      0.15531989	     -0.28267855	      1.58277669	      0.09070768	     -0.19679041	      0.60145171	      0.60117612	     -0.35070587	      0.51449129	      0.43784261	     -0.25614170	      0.45930329	      0.44128830	     -0.34931780	      1.25844277	      1.51258229	     -0.45210313	      1.16778685	      1.49478234	     -0.10644972	      1.26889166	      1.45131463	     -0.23610286	      1.17415641	      1.54062480	     -0.29327433	      1.10357643	      1.45402115	     -0.07338809	      1.06872417	      1.37069962	     -0.09072379	      1.00042139	      1.41687238	     -0.12293933	      0.90956657	      1.33965286	     -0.11473894	      0.92864062	      1.33149116	     -0.17841695	      1.24228101	      1.44507267	     -0.51606295	      1.17415410	      1.39971794	     -0.52124987	      1.23682089	      1.34525346	     -0.54928088	      1.16942011	      1.24742553	     -0.60337065	      1.11263507	      1.24243155	     -0.55404080	      0.94956777	      1.26472051	     -0.07235315	      1.00652684	      1.08798491	     -0.04929663	      0.94774521	      1.06740814	     -0.07614292	      1.24727955	      1.25718268	     -0.56515959	      1.34550030	      1.30781027	     -0.40619169	      1.36195470	      1.24358445	     -0.40816267
      2.75833300	     -7.71304466	     -5.19094158	     -4.27201565	      1.22082964	      1.00549986	     -0.29387591	     34.08164880	     10.15895679	     -2.65983794	    -13.79541253	    -16.86545068	     -7.71364190	      2.10479309	     -4.39883579	    -79.42544355	    -34.07288889	     -3.04026302	      8.82178031	    -10.44955198	    -53.06796777	     -9.26687221	    -20.02428701	     81.46298720	     68.04491100	    -24.74504020	    -20.02635774	      4.34619768	    134.87475343	     85.44237742	      0.00000000	      0.00000000	      0.00000000	      0.00000000	      0.00000000	      0.00000000	      0.00000000	      0.00000000	      1.23499849	      1.00543318	     -0.40767018	      1.21488598	      1.02618037	     -0.17793951	      1.06835633	      1.06387408	     -0.36251126	      1.05610464	      1.06481448	     -0.26339061	      1.18425100	      0.87255496	     -0.11356931	      1.30421621	      0.75331501	     -0.14081164	      1.28098515	      0.65045358	     -0.15913020	      1.12941353	      0.83914954	     -0.46090593	      1.15940356	      0.72391152	     -0.42197273	      1.04644507	      0.63255513	     -0.41083520	      1.41411241	      0.45834627	     -0.22028792	      1.37357963	      0.38443103	     -0.16870808	      1.45016175	      0.28178600	     -0.23353245	      0.89715545	      0.47559878	     -0.34420194	      0.80022610	      0.52117629	     -0.39865514	      0.69903199	      0.50273012	     -0.33854753	      1.37247547	      0.12623936	     -0.28433560	      1.58208395	      0.14023444	     -0.28401195	      1.56354583	      0.07662467	     -0.19645881	      0.62210024	      0.62593475	     -0.34893669	      0.52182019	      0.46515517	     -0.26309514	      0.46890807	      0.47688382	     -0.35695187	      1.25562684	      1.50664415	     -0.45184583	      1.16960312	      1.48714341	     -0.10422075	      1.26908679	      1.44472753	     -0.23628553	      1.17376388	      1.53500474	     -0.29125398	      1.10593893	      1.44586575	     -0.06993611	      1.07075554	      1.36253063	     -0.08834051	      1.00295125	      1.40897960	     -0.12051845	      0.91194655	      1.33075680	     -0.11050448	      0.93042131	      1.32330691	     -0.17474133	      1.23695409	      1.44022305	     -0.51569221	      1.16780284	      1.39636977	     -0.51965825	      1.22897166	      1.34024282	     -0.54887913	      1.15820884	      1.24569480	     -0.60310363	      1.10200626	      1.24243677	     -0.55313449	      0.95396698	      1.25567109	     -0.06992242	      1.01519947	      1.07970687	     -0.05076852	      0.95667631	      1.05813652	     -0.07700067	      1.23655195	      1.24909009	     -0.56532745	      1.34299242	      1.28535427	     -0.40708209	      1.35247034	      1.22026633	     -0.41171008
      2.76666700	     -6.84175541	     -5.32738740	     -4.64372171	      1.22004078	      1.00049084	     -0.29328532	     32.86336860	     10.52500578	     -2.43800421	    -15.97261395	    -16.88087321	     -6.83439664	      1.41163910	     -5.54422862	    -85.83881867	    -31.94244345	     -4.08864927	      9.05617336	     -8.94927292	    -52.32580574	     -9.15589056	    -19.23609991	     81.96905246	     68.45124158	    -26.09388373	    -19.69205662	      4.65071029	    131.20006838	     84.88456899	      0.00000000	      0.00000000	      0.00000000	      0.00000000	      0.00000000	      0.00000000	      0.00000000	      0.00000000	      1.23496908	      1.00066692	     -0.40745936	      1.21371268	      1.02092784	     -0.17670156	      1.06735136	      1.05587668	     -0.36266982	      1.05523396	      1.05719648	     -0.26390832	      1.18145770	      0.86685275	     -0.11548494	      1.30213614	      0.74833743	     -0.13953812	      1.27699476	      0.64516133	     -0.16012918	      1.13327317	      0.83246200	     -0.46162372	      1.16528210	      0.71877143	     -0.42505689	      1.05454765	      0.62535516	     -0.41226526	      1.40618929	      0.44812127	     -0.22243862	      1.36486238	      0.37508821	     -0.17069331	      1.43535134	      0.26977645	     -0.23520871	      0.90777080	      0.47590447	     -0.34769543	      0.81441945	      0.53026344	     -0.40091737	      0.71266856	      0.51919607	     -0.34093309	      1.35050842	      0.11905429	     -0.28532869	      1.56016478	      0.12178290	     -0.28716014	      1.53971217	      0.06219483	     -0.19629191	      0.64420671	      0.64910765	     -0.34701573	      0.53326322	      0.49041456	     -0.27038181	      0.48375558	      0.50905282	     -0.36499312	      1.25233234	      1.50003647	     -0.45174025	      1.17128365	      1.47853347	     -0.10199851	      1.26916856	      1.43766186	     -0.23657256	      1.17296489	      1.52862170	     -0.28925307	      1.10832220	      1.43587675	     -0.06653122	      1.07312997	      1.35272143	     -0.08570839	      1.00487968	      1.39899995	     -0.11684496	      0.91454049	      1.31964142	     -0.10510115	      0.93165535	      1.31315926	     -0.16993725	      1.23082421	      1.43435464	     -0.51515552	      1.16065225	      1.39212713	     -0.51778428	      1.22021828	      1.33461252	     -0.54874690	      1.14624240	      1.24374005	     -0.60254449	      1.09078758	      1.24212405	     -0.55152139	      0.95892053	      1.24458585	     -0.06649970	      1.02525381	      1.07008962	     -0.05215300	      0.96671994	      1.04758653	     -0.07693158	      1.22466693	      1.24065399	     -0.56567570	      1.33851411	      1.26080142	     -0.40896536	      1.34140663	      1.19574010	     -0.41723282
      2.77500000	     -5.99170037	     -5.45579759	     -5.00619649	      1.21913917	      0.99470069	     -0.29292281	     31.67033182	     10.91416501	     -1.57321189	    -18.90705346	    -15.57173929	     -5.93348094	      0.67021375	     -6.59020892	    -92.13862295	    -29.07112176	     -5.07961723	      9.31483969	     -7.43476415	    -51.38771319	     -9.27344881	    -18.34503029	     82.44150755	     69.46094399	    -27.54523288	    -19.31438578	      4.69491474	    127.23227805	     85.74017152	      0.00000000	      0.00000000	      0.00000000	      0.00000000	      0.00000000	      0.00000000	      0.00000000	      0.00000000	      1.23466400	      0.99520825	     -0.40739949	      1.21274920	      1.01504888	     -0.17541781	      1.06645565	      1.04732465	     -0.36306743	      1.05436295	      1.04857043	     -0.26505116	      1.17927879	      0.86100240	     -0.11735656	      1.30049401	      0.74246119	     -0.13930935	      1.27332778	      0.63890557	     -0.16081098	      1.13639315	      0.82545287	     -0.46276451	      1.17082372	      0.71321447	     -0.42885743	      1.06298461	      0.61739497	     -0.41378092	      1.39771843	      0.43625273	     -0.22412851	      1.35489397	      0.36497845	     -0.17246015	      1.41634705	      0.25611145	     -0.23748360	      0.91960293	      0.47587503	     -0.35188524	      0.83077320	      0.53879078	     -0.40388522	      0.72882568	      0.53443337	     -0.34354817	      1.32185689	      0.11098282	     -0.28524165	      1.53220771	      0.10304217	     -0.29157789	      1.51058624	      0.05040567	     -0.19611958	      0.66759864	      0.67045100	     -0.34525087	      0.54856639	      0.51334711	     -0.27768914	      0.50295464	      0.53741750	     -0.37313927	      1.24863447	      1.49294010	     -0.45166639	      1.17291605	      1.46920606	     -0.09991021	      1.26915790	      1.43021846	     -0.23689214	      1.17176474	      1.52149662	     -0.28729562	      1.11064409	      1.42445537	     -0.06333418	      1.07602868	      1.34134933	     -0.08292630	      1.00622926	      1.38694755	     -0.11185448	      0.91756131	      1.30653011	     -0.09867714	      0.93272464	      1.30117095	     -0.16430271	      1.22415799	      1.42775510	     -0.51453257	      1.15294814	      1.38735516	     -0.51555383	      1.21060060	      1.32853830	     -0.54876203	      1.13363200	      1.24164424	     -0.60165983	      1.07906578	      1.24161446	     -0.54917792	      0.96474181	      1.23166266	     -0.06235611	      1.03674786	      1.05942101	     -0.05357869	      0.97781821	      1.03597242	     -0.07596099	      1.21178283	      1.23202282	     -0.56627554	      1.33158086	      1.23418918	     -0.41172433	      1.32854002	      1.17000192	     -0.42513930
